<?xml version="1.0" standalone="no"?>
<!DOCTYPE svg PUBLIC "-//W3C//DTD SVG 20010904//EN"
 "http://www.w3.org/TR/2001/REC-SVG-20010904/DTD/svg10.dtd">
<svg version="1.0" xmlns="http://www.w3.org/2000/svg"
 width="500.000000pt" height="320.000000pt" viewBox="0 0 500.000000 320.000000"
 preserveAspectRatio="xMidYMid meet">

<g transform="translate(0.000000,320.000000) scale(0.100000,-0.100000)"
fill="#000000" stroke="none">
<path d="M2255 2412 c-239 -123 -349 -183 -472 -259 l-73 -45 268 -133 c147
-73 325 -165 396 -204 72 -39 130 -71 131 -71 1 0 59 32 131 71 71 39 249 131
396 204 l268 133 -73 45 c-183 114 -690 377 -724 377 -10 0 -121 -54 -248
-118z"/>
<path d="M1435 1924 c-174 -124 -468 -365 -628 -514 -5 -4 127 -114 293 -243
l302 -236 81 71 c127 110 371 289 603 443 116 77 219 145 230 151 16 9 5 18
-81 66 -153 85 -660 348 -671 348 -5 0 -63 -39 -129 -86z"/>
<path d="M3115 1842 c-433 -227 -443 -233 -420 -246 10 -6 113 -74 229 -151
232 -154 476 -333 603 -443 l81 -71 302 236 302 236 -35 31 c-20 17 -80 70
-134 117 -193 170 -571 459 -600 459 -4 0 -152 -76 -328 -168z"/>
<path d="M527 1137 c-172 -182 -313 -342 -395 -448 -11 -15 8 -41 145 -200 86
-101 190 -221 230 -266 l74 -81 95 101 c52 56 198 203 325 327 l229 225 -207
177 c-115 97 -242 206 -285 242 l-76 66 -135 -143z"/>
<path d="M4063 1036 l-283 -241 230 -225 c126 -124 272 -271 324 -327 l95
-101 74 81 c40 45 144 165 230 266 137 159 156 185 145 200 -87 112 -496 567
-526 584 -4 3 -134 -104 -289 -237z"/>
</g>
</svg>
