<?xml version="1.0" standalone="no"?>
<!DOCTYPE svg PUBLIC "-//W3C//DTD SVG 20010904//EN"
 "http://www.w3.org/TR/2001/REC-SVG-20010904/DTD/svg10.dtd">
<svg version="1.0" xmlns="http://www.w3.org/2000/svg"
 width="600.000000pt" height="600.000000pt" viewBox="0 0 600.000000 600.000000"
 preserveAspectRatio="xMidYMid meet">

<g transform="translate(0.000000,600.000000) scale(0.100000,-0.100000)"
fill="#000000" stroke="none">
<path d="M4040 1957 c0 -283 -3 -839 -7 -1236 l-6 -722 524 3 c586 3 561 0
638 77 74 74 71 33 71 1038 l0 893 -450 0 c-443 0 -450 0 -450 20 0 13 -7 20
-20 20 -16 0 -20 7 -20 35 0 31 -3 35 -25 35 -21 0 -25 5 -25 30 0 23 -4 30
-20 30 -16 0 -20 7 -20 30 0 23 -4 30 -20 30 -16 0 -20 7 -20 30 0 17 -4 30
-10 30 -5 0 -10 14 -10 30 0 17 -4 30 -10 30 -5 0 -10 14 -10 30 0 27 -3 30
-30 30 -25 0 -30 4 -30 25 0 20 -5 25 -25 25 l-25 0 0 -513z"/>
</g>
</svg>
