<?xml version="1.0" encoding="UTF-8"?>
<!DOCTYPE svg PUBLIC "-//W3C//DTD SVG 1.1//EN" "http://www.w3.org/Graphics/SVG/1.1/DTD/svg11.dtd">
<svg xmlns="http://www.w3.org/2000/svg" version="1.1" width="600px" height="600px" style="shape-rendering:geometricPrecision; text-rendering:geometricPrecision; image-rendering:optimizeQuality; fill-rule:evenodd; clip-rule:evenodd" xmlns:xlink="http://www.w3.org/1999/xlink">
<g><path style="opacity:0.994" fill="#e9b813" d="M 334.5,-0.5 C 392.5,-0.5 450.5,-0.5 508.5,-0.5C 518.088,3.26343 523.921,10.2634 526,20.5C 526.5,27.8258 526.666,35.1591 526.5,42.5C 525.517,38.7016 525.183,34.7016 525.5,30.5C 456.167,30.5 386.833,30.5 317.5,30.5C 317.795,28.2646 317.461,26.2646 316.5,24.5C 317.142,12.207 323.142,3.87366 334.5,-0.5 Z"/></g>
<g><path style="opacity:0.994" fill="#e5b112" d="M 316.5,24.5 C 317.461,26.2646 317.795,28.2646 317.5,30.5C 386.833,30.5 456.167,30.5 525.5,30.5C 525.183,34.7016 525.517,38.7016 526.5,42.5C 526.5,52.1667 526.5,61.8333 526.5,71.5C 456.833,71.5 387.167,71.5 317.5,71.5C 317.784,69.5853 317.451,67.9187 316.5,66.5C 316.5,52.5 316.5,38.5 316.5,24.5 Z"/></g>
<g><path style="opacity:0.995" fill="#e2ab11" d="M 316.5,66.5 C 317.451,67.9187 317.784,69.5853 317.5,71.5C 387.167,71.5 456.833,71.5 526.5,71.5C 526.5,81.5 526.5,91.5 526.5,101.5C 525.549,102.919 525.216,104.585 525.5,106.5C 456.167,106.5 386.833,106.5 317.5,106.5C 317.802,103.941 317.468,101.607 316.5,99.5C 316.5,88.5 316.5,77.5 316.5,66.5 Z"/></g>
<g><path style="opacity:0.993" fill="#dfa50f" d="M 316.5,99.5 C 317.468,101.607 317.802,103.941 317.5,106.5C 386.833,106.5 456.167,106.5 525.5,106.5C 525.216,104.585 525.549,102.919 526.5,101.5C 526.5,113.167 526.5,124.833 526.5,136.5C 525.549,137.919 525.216,139.585 525.5,141.5C 455.833,141.5 386.167,141.5 316.5,141.5C 316.5,127.5 316.5,113.5 316.5,99.5 Z"/></g>
<g><path style="opacity:0.993" fill="#dba010" d="M 526.5,136.5 C 526.5,155.833 526.5,175.167 526.5,194.5C 525.51,188.69 525.177,182.69 525.5,176.5C 494.833,176.5 464.167,176.5 433.5,176.5C 433.579,175.07 433.246,173.736 432.5,172.5C 427.704,172.71 424.37,170.71 422.5,166.5C 420.234,165.686 417.9,165.186 415.5,165C 410.655,160.025 404.988,158.192 398.5,159.5C 394.836,155.027 390.169,151.86 384.5,150C 361.663,149.832 338.996,149.332 316.5,148.5C 316.5,147.167 316.5,145.833 316.5,144.5C 316.5,143.5 316.5,142.5 316.5,141.5C 386.167,141.5 455.833,141.5 525.5,141.5C 525.216,139.585 525.549,137.919 526.5,136.5 Z"/></g>
<g><path style="opacity:0.004" fill="#000000" d="M 316.5,144.5 C 316.5,145.833 316.5,147.167 316.5,148.5C 286.167,148.5 255.833,148.5 225.5,148.5C 229.509,146.579 233.843,145.412 238.5,145C 264.498,144.5 290.498,144.333 316.5,144.5 Z"/></g>
<g><path style="opacity:0.985" fill="#f8e27f" d="M 225.5,148.5 C 255.833,148.5 286.167,148.5 316.5,148.5C 338.996,149.332 361.663,149.832 384.5,150C 390.169,151.86 394.836,155.027 398.5,159.5C 399.167,160.833 399.833,162.167 400.5,163.5C 401.11,164.391 401.443,165.391 401.5,166.5C 401.5,167.833 401.5,169.167 401.5,170.5C 332.5,170.5 263.5,170.5 194.5,170.5C 195.677,158.821 202.01,151.654 213.5,149C 217.486,148.501 221.486,148.334 225.5,148.5 Z"/></g>
<g><path style="opacity:1" fill="#d8990d" d="M 526.5,194.5 C 526.5,204.167 526.5,213.833 526.5,223.5C 525.539,221.735 525.205,219.735 525.5,217.5C 495.5,217.5 465.5,217.5 435.5,217.5C 435.5,215.5 435.5,213.5 435.5,211.5C 433.5,211.5 431.5,211.5 429.5,211.5C 429.5,209.167 429.5,206.833 429.5,204.5C 427.833,204.5 426.167,204.5 424.5,204.5C 423.715,197.514 423.048,190.514 422.5,183.5C 421.5,183.5 420.5,183.5 419.5,183.5C 419.561,179.951 418.727,176.618 417,173.5C 413.748,171.238 410.581,168.738 407.5,166C 405.35,164.589 403.016,163.755 400.5,163.5C 399.833,162.167 399.167,160.833 398.5,159.5C 404.988,158.192 410.655,160.025 415.5,165C 417.9,165.186 420.234,165.686 422.5,166.5C 424.37,170.71 427.704,172.71 432.5,172.5C 433.246,173.736 433.579,175.07 433.5,176.5C 464.167,176.5 494.833,176.5 525.5,176.5C 525.177,182.69 525.51,188.69 526.5,194.5 Z"/></g>
<g><path style="opacity:0.998" fill="#f7df79" d="M 401.5,166.5 C 402.493,174.65 402.826,182.983 402.5,191.5C 333.167,191.5 263.833,191.5 194.5,191.5C 194.768,189.901 194.434,188.568 193.5,187.5C 193.178,181.642 193.511,175.975 194.5,170.5C 263.5,170.5 332.5,170.5 401.5,170.5C 401.5,169.167 401.5,167.833 401.5,166.5 Z"/></g>
<g><path style="opacity:0.997" fill="#f5db73" d="M 193.5,187.5 C 194.434,188.568 194.768,189.901 194.5,191.5C 263.833,191.5 333.167,191.5 402.5,191.5C 402.5,198.5 402.5,205.5 402.5,212.5C 333.167,212.5 263.833,212.5 194.5,212.5C 194.802,215.059 194.468,217.393 193.5,219.5C 193.5,208.833 193.5,198.167 193.5,187.5 Z"/></g>
<g><path style="opacity:0.999" fill="#f4d86d" d="M 402.5,212.5 C 402.5,219.167 402.5,225.833 402.5,232.5C 332.833,232.5 263.167,232.5 193.5,232.5C 193.5,228.167 193.5,223.833 193.5,219.5C 194.468,217.393 194.802,215.059 194.5,212.5C 263.833,212.5 333.167,212.5 402.5,212.5 Z"/></g>
<g><path style="opacity:0.979" fill="#d3930c" d="M 400.5,163.5 C 403.016,163.755 405.35,164.589 407.5,166C 410.581,168.738 413.748,171.238 417,173.5C 418.727,176.618 419.561,179.951 419.5,183.5C 420.5,183.5 421.5,183.5 422.5,183.5C 423.048,190.514 423.715,197.514 424.5,204.5C 426.167,204.5 427.833,204.5 429.5,204.5C 429.5,206.833 429.5,209.167 429.5,211.5C 431.5,211.5 433.5,211.5 435.5,211.5C 435.5,213.5 435.5,215.5 435.5,217.5C 465.5,217.5 495.5,217.5 525.5,217.5C 525.205,219.735 525.539,221.735 526.5,223.5C 526.5,233.167 526.5,242.833 526.5,252.5C 496.167,252.5 465.833,252.5 435.5,252.5C 435.5,250.5 435.5,248.5 435.5,246.5C 433.5,246.5 431.5,246.5 429.5,246.5C 429.5,244.833 429.5,243.167 429.5,241.5C 427.833,241.5 426.167,241.5 424.5,241.5C 424.5,239.5 424.5,237.5 424.5,235.5C 423.167,235.5 421.833,235.5 420.5,235.5C 420.698,230.902 419.032,227.235 415.5,224.5C 414.526,222.257 414.192,219.924 414.5,217.5C 412.5,217.5 410.5,217.5 408.5,217.5C 408.5,215.5 408.5,213.5 408.5,211.5C 406.833,211.5 405.167,211.5 403.5,211.5C 403.5,223.167 403.5,234.833 403.5,246.5C 403.5,260.167 403.5,273.833 403.5,287.5C 403.828,299.345 403.495,311.012 402.5,322.5C 402.5,321.5 402.5,320.5 402.5,319.5C 402.5,305.5 402.5,291.5 402.5,277.5C 402.5,270.5 402.5,263.5 402.5,256.5C 402.5,248.5 402.5,240.5 402.5,232.5C 402.5,225.833 402.5,219.167 402.5,212.5C 402.5,205.5 402.5,198.5 402.5,191.5C 402.826,182.983 402.493,174.65 401.5,166.5C 401.443,165.391 401.11,164.391 400.5,163.5 Z"/></g>
<g><path style="opacity:0.993" fill="#d08c0b" d="M 526.5,252.5 C 526.5,264.167 526.5,275.833 526.5,287.5C 496.167,287.5 465.833,287.5 435.5,287.5C 435.5,285.5 435.5,283.5 435.5,281.5C 433.5,281.5 431.5,281.5 429.5,281.5C 429.5,279.833 429.5,278.167 429.5,276.5C 427.833,276.5 426.167,276.5 424.5,276.5C 424.5,274.5 424.5,272.5 424.5,270.5C 423.167,270.5 421.833,270.5 420.5,270.5C 420.5,268.5 420.5,266.5 420.5,264.5C 419.167,264.5 417.833,264.5 416.5,264.5C 415.833,260.5 415.167,256.5 414.5,252.5C 412.5,252.5 410.5,252.5 408.5,252.5C 408.5,250.5 408.5,248.5 408.5,246.5C 406.833,246.5 405.167,246.5 403.5,246.5C 403.5,234.833 403.5,223.167 403.5,211.5C 405.167,211.5 406.833,211.5 408.5,211.5C 408.5,213.5 408.5,215.5 408.5,217.5C 410.5,217.5 412.5,217.5 414.5,217.5C 414.192,219.924 414.526,222.257 415.5,224.5C 419.032,227.235 420.698,230.902 420.5,235.5C 421.833,235.5 423.167,235.5 424.5,235.5C 424.5,237.5 424.5,239.5 424.5,241.5C 426.167,241.5 427.833,241.5 429.5,241.5C 429.5,243.167 429.5,244.833 429.5,246.5C 431.5,246.5 433.5,246.5 435.5,246.5C 435.5,248.5 435.5,250.5 435.5,252.5C 465.833,252.5 496.167,252.5 526.5,252.5 Z"/></g>
<g><path style="opacity:0.997" fill="#f3d466" d="M 193.5,232.5 C 263.167,232.5 332.833,232.5 402.5,232.5C 402.5,240.5 402.5,248.5 402.5,256.5C 333.167,256.5 263.833,256.5 194.5,256.5C 194.768,258.099 194.434,259.432 193.5,260.5C 193.5,251.167 193.5,241.833 193.5,232.5 Z"/></g>
<g><path style="opacity:0.998" fill="#cc8609" d="M 403.5,246.5 C 405.167,246.5 406.833,246.5 408.5,246.5C 408.5,248.5 408.5,250.5 408.5,252.5C 410.5,252.5 412.5,252.5 414.5,252.5C 415.167,256.5 415.833,260.5 416.5,264.5C 417.833,264.5 419.167,264.5 420.5,264.5C 420.5,266.5 420.5,268.5 420.5,270.5C 421.833,270.5 423.167,270.5 424.5,270.5C 424.5,272.5 424.5,274.5 424.5,276.5C 426.167,276.5 427.833,276.5 429.5,276.5C 429.5,278.167 429.5,279.833 429.5,281.5C 431.5,281.5 433.5,281.5 435.5,281.5C 435.5,283.5 435.5,285.5 435.5,287.5C 465.833,287.5 496.167,287.5 526.5,287.5C 526.5,297.5 526.5,307.5 526.5,317.5C 525.549,318.919 525.216,320.585 525.5,322.5C 495.5,322.5 465.5,322.5 435.5,322.5C 435.5,320.833 435.5,319.167 435.5,317.5C 433.5,317.5 431.5,317.5 429.5,317.5C 429.5,315.5 429.5,313.5 429.5,311.5C 427.833,311.5 426.167,311.5 424.5,311.5C 424.5,309.5 424.5,307.5 424.5,305.5C 423.167,305.5 421.833,305.5 420.5,305.5C 420.5,303.5 420.5,301.5 420.5,299.5C 419.167,299.5 417.833,299.5 416.5,299.5C 416.5,297.5 416.5,295.5 416.5,293.5C 414.833,293.5 413.167,293.5 411.5,293.5C 411.5,291.5 411.5,289.5 411.5,287.5C 408.833,287.5 406.167,287.5 403.5,287.5C 403.5,273.833 403.5,260.167 403.5,246.5 Z"/></g>
<g><path style="opacity:0.998" fill="#f1d060" d="M 402.5,256.5 C 402.5,263.5 402.5,270.5 402.5,277.5C 333.167,277.5 263.833,277.5 194.5,277.5C 194.737,276.209 194.404,275.209 193.5,274.5C 193.5,269.833 193.5,265.167 193.5,260.5C 194.434,259.432 194.768,258.099 194.5,256.5C 263.833,256.5 333.167,256.5 402.5,256.5 Z"/></g>
<g><path style="opacity:0.996" fill="#f0cc58" d="M 193.5,274.5 C 194.404,275.209 194.737,276.209 194.5,277.5C 263.833,277.5 333.167,277.5 402.5,277.5C 402.5,291.5 402.5,305.5 402.5,319.5C 362.5,319.5 322.5,319.5 282.5,319.5C 282.5,334.167 282.5,348.833 282.5,363.5C 282.5,377.5 282.5,391.5 282.5,405.5C 282.802,408.059 282.468,410.393 281.5,412.5C 281.5,411.167 281.5,409.833 281.5,408.5C 281.5,401.833 281.5,395.167 281.5,388.5C 281.5,381.833 281.5,375.167 281.5,368.5C 281.5,361.833 281.5,355.167 281.5,348.5C 281.5,340.5 281.5,332.5 281.5,324.5C 281.045,311.867 274.711,303.701 262.5,300C 239.502,299.5 216.502,299.333 193.5,299.5C 193.5,291.167 193.5,282.833 193.5,274.5 Z"/></g>
<g><path style="opacity:0.992" fill="#c98009" d="M 403.5,287.5 C 406.167,287.5 408.833,287.5 411.5,287.5C 411.5,289.5 411.5,291.5 411.5,293.5C 413.167,293.5 414.833,293.5 416.5,293.5C 416.5,295.5 416.5,297.5 416.5,299.5C 417.833,299.5 419.167,299.5 420.5,299.5C 420.5,301.5 420.5,303.5 420.5,305.5C 421.833,305.5 423.167,305.5 424.5,305.5C 424.5,307.5 424.5,309.5 424.5,311.5C 426.167,311.5 427.833,311.5 429.5,311.5C 429.5,313.5 429.5,315.5 429.5,317.5C 431.5,317.5 433.5,317.5 435.5,317.5C 435.5,319.167 435.5,320.833 435.5,322.5C 465.5,322.5 495.5,322.5 525.5,322.5C 525.216,320.585 525.549,318.919 526.5,317.5C 526.5,332.5 526.5,347.5 526.5,362.5C 494.907,363.492 463.24,363.825 431.5,363.5C 431.5,361.5 431.5,359.5 431.5,357.5C 429.833,357.5 428.167,357.5 426.5,357.5C 426.5,355.833 426.5,354.167 426.5,352.5C 425.167,352.5 423.833,352.5 422.5,352.5C 421.833,348.5 421.167,344.5 420.5,340.5C 419.167,340.5 417.833,340.5 416.5,340.5C 416.5,338.5 416.5,336.5 416.5,334.5C 414.833,334.5 413.167,334.5 411.5,334.5C 411.5,332.5 411.5,330.5 411.5,328.5C 408.833,328.5 406.167,328.5 403.5,328.5C 403.5,340.167 403.5,351.833 403.5,363.5C 403.5,375.167 403.5,386.833 403.5,398.5C 403.5,412.167 403.5,425.833 403.5,439.5C 403.829,453.01 403.496,466.344 402.5,479.5C 402.5,475.833 402.5,472.167 402.5,468.5C 402.5,454.833 402.5,441.167 402.5,427.5C 402.5,420.167 402.5,412.833 402.5,405.5C 402.5,391.5 402.5,377.5 402.5,363.5C 402.5,349.833 402.5,336.167 402.5,322.5C 403.495,311.012 403.828,299.345 403.5,287.5 Z"/></g>
<g><path style="opacity:0.999" fill="#f9e487" d="M 193.5,299.5 C 216.502,299.333 239.502,299.5 262.5,300C 274.711,303.701 281.045,311.867 281.5,324.5C 212.167,324.5 142.833,324.5 73.5,324.5C 73.7373,323.209 73.404,322.209 72.5,321.5C 74.3233,310.843 80.3233,303.676 90.5,300C 124.832,299.5 159.165,299.333 193.5,299.5 Z"/></g>
<g><path style="opacity:1" fill="#f8e27f" d="M 72.5,321.5 C 73.404,322.209 73.7373,323.209 73.5,324.5C 142.833,324.5 212.167,324.5 281.5,324.5C 281.5,332.5 281.5,340.5 281.5,348.5C 212.167,348.5 142.833,348.5 73.5,348.5C 73.7947,350.735 73.4614,352.735 72.5,354.5C 72.5,343.5 72.5,332.5 72.5,321.5 Z"/></g>
<g><path style="opacity:1" fill="#c57907" d="M 526.5,362.5 C 526.5,376.5 526.5,390.5 526.5,404.5C 525.539,402.735 525.205,400.735 525.5,398.5C 494.167,398.5 462.833,398.5 431.5,398.5C 431.5,396.5 431.5,394.5 431.5,392.5C 429.833,392.5 428.167,392.5 426.5,392.5C 426.5,390.833 426.5,389.167 426.5,387.5C 425.167,387.5 423.833,387.5 422.5,387.5C 422.5,385.5 422.5,383.5 422.5,381.5C 421.167,381.5 419.833,381.5 418.5,381.5C 418.5,379.5 418.5,377.5 418.5,375.5C 417.167,375.5 415.833,375.5 414.5,375.5C 414.5,373.5 414.5,371.5 414.5,369.5C 412.5,369.5 410.5,369.5 408.5,369.5C 408.5,367.5 408.5,365.5 408.5,363.5C 406.833,363.5 405.167,363.5 403.5,363.5C 403.5,351.833 403.5,340.167 403.5,328.5C 406.167,328.5 408.833,328.5 411.5,328.5C 411.5,330.5 411.5,332.5 411.5,334.5C 413.167,334.5 414.833,334.5 416.5,334.5C 416.5,336.5 416.5,338.5 416.5,340.5C 417.833,340.5 419.167,340.5 420.5,340.5C 421.167,344.5 421.833,348.5 422.5,352.5C 423.833,352.5 425.167,352.5 426.5,352.5C 426.5,354.167 426.5,355.833 426.5,357.5C 428.167,357.5 429.833,357.5 431.5,357.5C 431.5,359.5 431.5,361.5 431.5,363.5C 463.24,363.825 494.907,363.492 526.5,362.5 Z"/></g>
<g><path style="opacity:1" fill="#edc34a" d="M 402.5,319.5 C 402.5,320.5 402.5,321.5 402.5,322.5C 402.5,336.167 402.5,349.833 402.5,363.5C 362.5,363.5 322.5,363.5 282.5,363.5C 282.5,348.833 282.5,334.167 282.5,319.5C 322.5,319.5 362.5,319.5 402.5,319.5 Z"/></g>
<g><path style="opacity:1" fill="#f8e179" d="M 281.5,348.5 C 281.5,355.167 281.5,361.833 281.5,368.5C 212.167,368.5 142.833,368.5 73.5,368.5C 73.7373,369.791 73.404,370.791 72.5,371.5C 72.5,365.833 72.5,360.167 72.5,354.5C 73.4614,352.735 73.7947,350.735 73.5,348.5C 142.833,348.5 212.167,348.5 281.5,348.5 Z"/></g>
<g><path style="opacity:0.997" fill="#f7df73" d="M 281.5,368.5 C 281.5,375.167 281.5,381.833 281.5,388.5C 212.167,388.5 142.833,388.5 73.5,388.5C 73.7678,390.099 73.4345,391.432 72.5,392.5C 72.5,385.5 72.5,378.5 72.5,371.5C 73.404,370.791 73.7373,369.791 73.5,368.5C 142.833,368.5 212.167,368.5 281.5,368.5 Z"/></g>
<g><path style="opacity:0.997" fill="#f6dd6d" d="M 281.5,388.5 C 281.5,395.167 281.5,401.833 281.5,408.5C 211.833,408.5 142.167,408.5 72.5,408.5C 72.5,403.167 72.5,397.833 72.5,392.5C 73.4345,391.432 73.7678,390.099 73.5,388.5C 142.833,388.5 212.167,388.5 281.5,388.5 Z"/></g>
<g><path style="opacity:1" fill="#eabc3d" d="M 282.5,363.5 C 322.5,363.5 362.5,363.5 402.5,363.5C 402.5,377.5 402.5,391.5 402.5,405.5C 362.5,405.5 322.5,405.5 282.5,405.5C 282.5,391.5 282.5,377.5 282.5,363.5 Z"/></g>
<g><path style="opacity:0.994" fill="#bf6d05" d="M 403.5,398.5 C 405.167,398.5 406.833,398.5 408.5,398.5C 408.5,400.5 408.5,402.5 408.5,404.5C 410.5,404.5 412.5,404.5 414.5,404.5C 414.5,406.5 414.5,408.5 414.5,410.5C 415.833,410.5 417.167,410.5 418.5,410.5C 418.5,412.5 418.5,414.5 418.5,416.5C 419.833,416.5 421.167,416.5 422.5,416.5C 422.5,418.5 422.5,420.5 422.5,422.5C 423.833,422.5 425.167,422.5 426.5,422.5C 426.5,424.167 426.5,425.833 426.5,427.5C 428.167,427.5 429.833,427.5 431.5,427.5C 431.5,429.5 431.5,431.5 431.5,433.5C 462.833,433.5 494.167,433.5 525.5,433.5C 525.205,435.735 525.539,437.735 526.5,439.5C 526.5,449.167 526.5,458.833 526.5,468.5C 494.833,468.5 463.167,468.5 431.5,468.5C 431.5,466.5 431.5,464.5 431.5,462.5C 429.833,462.5 428.167,462.5 426.5,462.5C 426.5,460.833 426.5,459.167 426.5,457.5C 425.167,457.5 423.833,457.5 422.5,457.5C 422.5,455.5 422.5,453.5 422.5,451.5C 420.5,451.5 418.5,451.5 416.5,451.5C 416.5,449.5 416.5,447.5 416.5,445.5C 414.833,445.5 413.167,445.5 411.5,445.5C 411.5,443.5 411.5,441.5 411.5,439.5C 408.833,439.5 406.167,439.5 403.5,439.5C 403.5,425.833 403.5,412.167 403.5,398.5 Z"/></g>
<g><path style="opacity:0.997" fill="#c27306" d="M 403.5,363.5 C 405.167,363.5 406.833,363.5 408.5,363.5C 408.5,365.5 408.5,367.5 408.5,369.5C 410.5,369.5 412.5,369.5 414.5,369.5C 414.5,371.5 414.5,373.5 414.5,375.5C 415.833,375.5 417.167,375.5 418.5,375.5C 418.5,377.5 418.5,379.5 418.5,381.5C 419.833,381.5 421.167,381.5 422.5,381.5C 422.5,383.5 422.5,385.5 422.5,387.5C 423.833,387.5 425.167,387.5 426.5,387.5C 426.5,389.167 426.5,390.833 426.5,392.5C 428.167,392.5 429.833,392.5 431.5,392.5C 431.5,394.5 431.5,396.5 431.5,398.5C 462.833,398.5 494.167,398.5 525.5,398.5C 525.205,400.735 525.539,402.735 526.5,404.5C 526.5,416.167 526.5,427.833 526.5,439.5C 525.539,437.735 525.205,435.735 525.5,433.5C 494.167,433.5 462.833,433.5 431.5,433.5C 431.5,431.5 431.5,429.5 431.5,427.5C 429.833,427.5 428.167,427.5 426.5,427.5C 426.5,425.833 426.5,424.167 426.5,422.5C 425.167,422.5 423.833,422.5 422.5,422.5C 422.5,420.5 422.5,418.5 422.5,416.5C 421.167,416.5 419.833,416.5 418.5,416.5C 418.5,414.5 418.5,412.5 418.5,410.5C 417.167,410.5 415.833,410.5 414.5,410.5C 414.5,408.5 414.5,406.5 414.5,404.5C 412.5,404.5 410.5,404.5 408.5,404.5C 408.5,402.5 408.5,400.5 408.5,398.5C 406.833,398.5 405.167,398.5 403.5,398.5C 403.5,386.833 403.5,375.167 403.5,363.5 Z"/></g>
<g><path style="opacity:1" fill="#e9b735" d="M 282.5,405.5 C 322.5,405.5 362.5,405.5 402.5,405.5C 402.5,412.833 402.5,420.167 402.5,427.5C 362.5,427.5 322.5,427.5 282.5,427.5C 282.5,441.167 282.5,454.833 282.5,468.5C 282.827,477.682 282.493,486.682 281.5,495.5C 281.5,494.833 281.5,494.167 281.5,493.5C 281.5,486.833 281.5,480.167 281.5,473.5C 281.5,466.5 281.5,459.5 281.5,452.5C 281.5,445.833 281.5,439.167 281.5,432.5C 281.5,425.833 281.5,419.167 281.5,412.5C 282.468,410.393 282.802,408.059 282.5,405.5 Z"/></g>
<g><path style="opacity:0.997" fill="#f6db67" d="M 72.5,408.5 C 142.167,408.5 211.833,408.5 281.5,408.5C 281.5,409.833 281.5,411.167 281.5,412.5C 281.5,419.167 281.5,425.833 281.5,432.5C 212.167,432.5 142.833,432.5 73.5,432.5C 73.8016,429.941 73.4682,427.607 72.5,425.5C 72.5,419.833 72.5,414.167 72.5,408.5 Z"/></g>
<g><path style="opacity:1" fill="#f5da60" d="M 72.5,425.5 C 73.4682,427.607 73.8016,429.941 73.5,432.5C 142.833,432.5 212.167,432.5 281.5,432.5C 281.5,439.167 281.5,445.833 281.5,452.5C 212.167,452.5 142.833,452.5 73.5,452.5C 73.5,454.833 73.5,457.167 73.5,459.5C 73.1667,459.5 72.8333,459.5 72.5,459.5C 72.5,448.167 72.5,436.833 72.5,425.5 Z"/></g>
<g><path style="opacity:1" fill="#e6b12a" d="M 402.5,427.5 C 402.5,441.167 402.5,454.833 402.5,468.5C 362.5,468.5 322.5,468.5 282.5,468.5C 282.5,454.833 282.5,441.167 282.5,427.5C 322.5,427.5 362.5,427.5 402.5,427.5 Z"/></g>
<g><path style="opacity:1" fill="#f6d85a" d="M 281.5,452.5 C 281.5,459.5 281.5,466.5 281.5,473.5C 212.167,473.5 142.833,473.5 73.5,473.5C 73.5,468.833 73.5,464.167 73.5,459.5C 73.5,457.167 73.5,454.833 73.5,452.5C 142.833,452.5 212.167,452.5 281.5,452.5 Z"/></g>
<g><path style="opacity:0.997" fill="#bc6703" d="M 403.5,439.5 C 406.167,439.5 408.833,439.5 411.5,439.5C 411.5,441.5 411.5,443.5 411.5,445.5C 413.167,445.5 414.833,445.5 416.5,445.5C 416.5,447.5 416.5,449.5 416.5,451.5C 418.5,451.5 420.5,451.5 422.5,451.5C 422.5,453.5 422.5,455.5 422.5,457.5C 423.833,457.5 425.167,457.5 426.5,457.5C 426.5,459.167 426.5,460.833 426.5,462.5C 428.167,462.5 429.833,462.5 431.5,462.5C 431.5,464.5 431.5,466.5 431.5,468.5C 463.167,468.5 494.833,468.5 526.5,468.5C 526.5,478.167 526.5,487.833 526.5,497.5C 525.517,501.298 525.183,505.298 525.5,509.5C 494.167,509.5 462.833,509.5 431.5,509.5C 431.5,507.5 431.5,505.5 431.5,503.5C 429.833,503.5 428.167,503.5 426.5,503.5C 426.5,501.5 426.5,499.5 426.5,497.5C 424.5,497.5 422.5,497.5 420.5,497.5C 420.5,495.833 420.5,494.167 420.5,492.5C 419.167,492.5 417.833,492.5 416.5,492.5C 416.5,490.5 416.5,488.5 416.5,486.5C 413.833,486.5 411.167,486.5 408.5,486.5C 408.5,484.5 408.5,482.5 408.5,480.5C 406.833,480.5 405.167,480.5 403.5,480.5C 403.5,492.167 403.5,503.833 403.5,515.5C 403.5,524.5 403.5,533.5 403.5,542.5C 403.5,561.5 403.5,580.5 403.5,599.5C 403.167,599.5 402.833,599.5 402.5,599.5C 402.5,590.833 402.5,582.167 402.5,573.5C 402.5,561.833 402.5,550.167 402.5,538.5C 402.5,526.833 402.5,515.167 402.5,503.5C 402.5,495.5 402.5,487.5 402.5,479.5C 403.496,466.344 403.829,453.01 403.5,439.5 Z"/></g>
<g><path style="opacity:1" fill="#e4ab21" d="M 282.5,468.5 C 322.5,468.5 362.5,468.5 402.5,468.5C 402.5,472.167 402.5,475.833 402.5,479.5C 402.5,487.5 402.5,495.5 402.5,503.5C 362.5,503.5 322.5,503.5 282.5,503.5C 282.5,515.167 282.5,526.833 282.5,538.5C 282.5,550.167 282.5,561.833 282.5,573.5C 282.5,582.167 282.5,590.833 282.5,599.5C 282.167,599.5 281.833,599.5 281.5,599.5C 281.5,585.5 281.5,571.5 281.5,557.5C 281.5,550.833 281.5,544.167 281.5,537.5C 281.5,530.833 281.5,524.167 281.5,517.5C 281.5,510.167 281.5,502.833 281.5,495.5C 282.493,486.682 282.827,477.682 282.5,468.5 Z"/></g>
<g><path style="opacity:0.997" fill="#f5d654" d="M 72.5,459.5 C 72.8333,459.5 73.1667,459.5 73.5,459.5C 73.5,464.167 73.5,468.833 73.5,473.5C 142.833,473.5 212.167,473.5 281.5,473.5C 281.5,480.167 281.5,486.833 281.5,493.5C 212.167,493.5 142.833,493.5 73.5,493.5C 73.7373,494.791 73.404,495.791 72.5,496.5C 72.5,484.167 72.5,471.833 72.5,459.5 Z"/></g>
<g><path style="opacity:0.987" fill="#b86002" d="M 526.5,497.5 C 526.5,517.167 526.5,536.833 526.5,556.5C 525.517,552.702 525.183,548.702 525.5,544.5C 494.167,544.5 462.833,544.5 431.5,544.5C 431.5,542.5 431.5,540.5 431.5,538.5C 429.167,538.5 426.833,538.5 424.5,538.5C 424.5,536.5 424.5,534.5 424.5,532.5C 423.167,532.5 421.833,532.5 420.5,532.5C 420.5,530.833 420.5,529.167 420.5,527.5C 418.5,527.5 416.5,527.5 414.5,527.5C 414.5,525.5 414.5,523.5 414.5,521.5C 412.5,521.5 410.5,521.5 408.5,521.5C 408.5,519.5 408.5,517.5 408.5,515.5C 406.833,515.5 405.167,515.5 403.5,515.5C 403.5,503.833 403.5,492.167 403.5,480.5C 405.167,480.5 406.833,480.5 408.5,480.5C 408.5,482.5 408.5,484.5 408.5,486.5C 411.167,486.5 413.833,486.5 416.5,486.5C 416.5,488.5 416.5,490.5 416.5,492.5C 417.833,492.5 419.167,492.5 420.5,492.5C 420.5,494.167 420.5,495.833 420.5,497.5C 422.5,497.5 424.5,497.5 426.5,497.5C 426.5,499.5 426.5,501.5 426.5,503.5C 428.167,503.5 429.833,503.5 431.5,503.5C 431.5,505.5 431.5,507.5 431.5,509.5C 462.833,509.5 494.167,509.5 525.5,509.5C 525.183,505.298 525.517,501.298 526.5,497.5 Z"/></g>
<g><path style="opacity:0.996" fill="#f5d44e" d="M 281.5,493.5 C 281.5,494.167 281.5,494.833 281.5,495.5C 281.5,502.833 281.5,510.167 281.5,517.5C 212.167,517.5 142.833,517.5 73.5,517.5C 73.7678,515.901 73.4345,514.568 72.5,513.5C 72.5,507.833 72.5,502.167 72.5,496.5C 73.404,495.791 73.7373,494.791 73.5,493.5C 142.833,493.5 212.167,493.5 281.5,493.5 Z"/></g>
<g><path style="opacity:1" fill="#e2a516" d="M 402.5,503.5 C 402.5,515.167 402.5,526.833 402.5,538.5C 362.5,538.5 322.5,538.5 282.5,538.5C 282.5,526.833 282.5,515.167 282.5,503.5C 322.5,503.5 362.5,503.5 402.5,503.5 Z"/></g>
<g><path style="opacity:0.999" fill="#b45a01" d="M 403.5,515.5 C 405.167,515.5 406.833,515.5 408.5,515.5C 408.5,517.5 408.5,519.5 408.5,521.5C 410.5,521.5 412.5,521.5 414.5,521.5C 414.5,523.5 414.5,525.5 414.5,527.5C 416.5,527.5 418.5,527.5 420.5,527.5C 420.5,529.167 420.5,530.833 420.5,532.5C 421.833,532.5 423.167,532.5 424.5,532.5C 424.5,534.5 424.5,536.5 424.5,538.5C 426.833,538.5 429.167,538.5 431.5,538.5C 431.5,540.5 431.5,542.5 431.5,544.5C 462.833,544.5 494.167,544.5 525.5,544.5C 525.183,548.702 525.517,552.702 526.5,556.5C 526.767,564.222 526.434,571.889 525.5,579.5C 494.167,579.5 462.833,579.5 431.5,579.5C 431.5,577.5 431.5,575.5 431.5,573.5C 429.167,573.5 426.833,573.5 424.5,573.5C 424.5,571.833 424.5,570.167 424.5,568.5C 422.5,568.5 420.5,568.5 418.5,568.5C 418.5,566.5 418.5,564.5 418.5,562.5C 417.167,562.5 415.833,562.5 414.5,562.5C 414.5,560.5 414.5,558.5 414.5,556.5C 413.5,556.5 412.5,556.5 411.5,556.5C 411.5,555.167 411.5,553.833 411.5,552.5C 410.5,552.5 409.5,552.5 408.5,552.5C 408.5,549.167 408.5,545.833 408.5,542.5C 406.833,542.5 405.167,542.5 403.5,542.5C 403.5,533.5 403.5,524.5 403.5,515.5 Z"/></g>
<g><path style="opacity:1" fill="#f4d347" d="M 72.5,513.5 C 73.4345,514.568 73.7678,515.901 73.5,517.5C 142.833,517.5 212.167,517.5 281.5,517.5C 281.5,524.167 281.5,530.833 281.5,537.5C 212.167,537.5 142.833,537.5 73.5,537.5C 73.8016,534.941 73.4682,532.607 72.5,530.5C 72.5,524.833 72.5,519.167 72.5,513.5 Z"/></g>
<g><path style="opacity:0.997" fill="#f4d141" d="M 72.5,530.5 C 73.4682,532.607 73.8016,534.941 73.5,537.5C 142.833,537.5 212.167,537.5 281.5,537.5C 281.5,544.167 281.5,550.833 281.5,557.5C 212.167,557.5 142.833,557.5 73.5,557.5C 73.8128,553.958 73.4794,550.625 72.5,547.5C 72.5,541.833 72.5,536.167 72.5,530.5 Z"/></g>
<g><path style="opacity:0.994" fill="#f3cf39" d="M 72.5,547.5 C 73.4794,550.625 73.8128,553.958 73.5,557.5C 142.833,557.5 212.167,557.5 281.5,557.5C 281.5,571.5 281.5,585.5 281.5,599.5C 217.833,599.5 154.167,599.5 90.5,599.5C 80.9124,595.737 75.0791,588.737 73,578.5C 72.5002,568.172 72.3335,557.839 72.5,547.5 Z"/></g>
<g><path style="opacity:0.994" fill="#b15500" d="M 403.5,542.5 C 405.167,542.5 406.833,542.5 408.5,542.5C 408.5,545.833 408.5,549.167 408.5,552.5C 409.5,552.5 410.5,552.5 411.5,552.5C 411.5,553.833 411.5,555.167 411.5,556.5C 412.5,556.5 413.5,556.5 414.5,556.5C 414.5,558.5 414.5,560.5 414.5,562.5C 415.833,562.5 417.167,562.5 418.5,562.5C 418.5,564.5 418.5,566.5 418.5,568.5C 420.5,568.5 422.5,568.5 424.5,568.5C 424.5,570.167 424.5,571.833 424.5,573.5C 426.833,573.5 429.167,573.5 431.5,573.5C 431.5,575.5 431.5,577.5 431.5,579.5C 462.833,579.5 494.167,579.5 525.5,579.5C 523.406,589.256 517.74,595.923 508.5,599.5C 473.5,599.5 438.5,599.5 403.5,599.5C 403.5,580.5 403.5,561.5 403.5,542.5 Z"/></g>
<g><path style="opacity:1" fill="#e09e0c" d="M 282.5,538.5 C 322.5,538.5 362.5,538.5 402.5,538.5C 402.5,550.167 402.5,561.833 402.5,573.5C 362.5,573.5 322.5,573.5 282.5,573.5C 282.5,561.833 282.5,550.167 282.5,538.5 Z"/></g>
<g><path style="opacity:1" fill="#de9a03" d="M 282.5,573.5 C 322.5,573.5 362.5,573.5 402.5,573.5C 402.5,582.167 402.5,590.833 402.5,599.5C 362.5,599.5 322.5,599.5 282.5,599.5C 282.5,590.833 282.5,582.167 282.5,573.5 Z"/></g>
</svg>
