<?xml version="1.0" encoding="UTF-8"?>
<!DOCTYPE svg PUBLIC "-//W3C//DTD SVG 1.1//EN" "http://www.w3.org/Graphics/SVG/1.1/DTD/svg11.dtd">
<svg xmlns="http://www.w3.org/2000/svg" version="1.1" width="1181px" height="450px" style="shape-rendering:geometricPrecision; text-rendering:geometricPrecision; image-rendering:optimizeQuality; fill-rule:evenodd; clip-rule:evenodd" xmlns:xlink="http://www.w3.org/1999/xlink">
<g><path style="opacity:0.984" fill="#00dc00" d="M 128.5,-0.5 C 143.167,-0.5 157.833,-0.5 172.5,-0.5C 205.59,2.80445 236.923,12.3044 266.5,28C 274.69,32.5939 282.357,37.9273 289.5,44C 274.959,58.875 260.126,73.375 245,87.5C 204.506,62.6675 161.006,55.1675 114.5,65C 101.782,68.259 91.6152,75.0923 84,85.5C 79.7749,97.0072 82.6083,106.507 92.5,114C 106.437,121.904 121.437,126.571 137.5,128C 157.143,129.932 176.81,131.598 196.5,133C 222.895,135.351 246.895,144.018 268.5,159C 285.247,173.662 294.08,192.162 295,214.5C 296.262,263.546 274.428,297.713 229.5,317C 190.105,331.063 149.771,334.396 108.5,327C 66.5702,319.037 30.2369,300.537 -0.5,271.5C -0.5,270.5 -0.5,269.5 -0.5,268.5C 15.1319,253.368 30.6319,238.035 46,222.5C 87.6826,261.379 136.183,273.546 191.5,259C 203.846,255.096 213.679,247.929 221,237.5C 226.261,224.514 223.761,213.347 213.5,204C 207.188,200.674 200.521,198.34 193.5,197C 165.803,194.275 138.136,191.275 110.5,188C 84.8706,184.684 61.5372,175.684 40.5,161C 16.9879,139.158 8.1546,112.325 14,80.5C 20.1766,56.9953 33.3433,38.4953 53.5,25C 76.6376,10.7879 101.638,2.2879 128.5,-0.5 Z"/></g>
<g><path style="opacity:0.985" fill="#00dc00" d="M 412.5,-0.5 C 428.5,-0.5 444.5,-0.5 460.5,-0.5C 484.525,1.42476 507.525,7.59143 529.5,18C 560.061,35.9233 576.227,62.7566 578,98.5C 578.5,173.833 578.667,249.166 578.5,324.5C 554.167,324.5 529.833,324.5 505.5,324.5C 505.666,314.494 505.5,304.494 505,294.5C 484.954,316.104 460.12,327.938 430.5,330C 399.157,333.61 369.49,328.277 341.5,314C 317.128,298.108 303.294,275.608 300,246.5C 295.555,219.814 300.555,195.147 315,172.5C 329.06,156.549 346.56,146.382 367.5,142C 377.715,139.765 388.048,138.431 398.5,138C 434.165,137.5 469.832,137.333 505.5,137.5C 505.667,124.496 505.5,111.496 505,98.5C 500.458,80.2933 488.958,69.1266 470.5,65C 433.059,56.1772 397.392,60.8438 363.5,79C 358.737,81.7976 354.237,84.9643 350,88.5C 335.333,73.8333 320.667,59.1667 306,44.5C 305.383,43.5509 305.549,42.7175 306.5,42C 338.036,18.3223 373.369,4.15563 412.5,-0.5 Z M 409.5,194.5 C 441.833,194.5 474.167,194.5 506.5,194.5C 508.068,211.972 505.235,228.639 498,244.5C 487.522,257.79 473.688,264.623 456.5,265C 437.802,265.888 419.136,265.555 400.5,264C 386.818,262.893 375.318,257.393 366,247.5C 358.413,235.228 358.08,222.894 365,210.5C 370.706,203.895 377.873,199.728 386.5,198C 394.257,196.447 401.924,195.28 409.5,194.5 Z"/></g>
<g><path style="opacity:0.986" fill="#00dc00" d="M 686.5,-0.5 C 699.167,-0.5 711.833,-0.5 724.5,-0.5C 753.871,3.77093 778.371,17.1043 798,39.5C 798.5,28.1716 798.667,16.8382 798.5,5.5C 823.167,5.5 847.833,5.5 872.5,5.5C 872.667,108.167 872.5,210.834 872,313.5C 866.496,383.682 829.662,427.516 761.5,445C 753.064,446.738 744.73,448.238 736.5,449.5C 725.833,449.5 715.167,449.5 704.5,449.5C 669.04,444.439 637.373,430.605 609.5,408C 608.549,407.282 608.383,406.449 609,405.5C 625,389.5 641,373.5 657,357.5C 672.132,368.548 688.965,375.714 707.5,379C 734.148,381.669 757.814,374.669 778.5,358C 796.203,339.723 802.703,317.89 798,292.5C 763.564,325.989 722.73,337.489 675.5,327C 622.804,313.309 593.304,279.476 587,225.5C 583.734,183.17 583.734,140.837 587,98.5C 591.541,55.3034 613.708,25.1367 653.5,8C 664.356,4.06957 675.356,1.23624 686.5,-0.5 Z M 720.5,61.5 C 746.081,59.742 767.581,68.0754 785,86.5C 794.414,98.4717 798.748,112.138 798,127.5C 798.667,151.833 798.667,176.167 798,200.5C 795.954,231.889 779.788,252.055 749.5,261C 723.637,267.094 699.637,262.761 677.5,248C 667.898,241.06 661.398,231.893 658,220.5C 655.351,208.656 654.017,196.656 654,184.5C 653.318,163.819 653.651,143.152 655,122.5C 655.756,100.474 665.589,83.9742 684.5,73C 695.832,66.6748 707.832,62.8414 720.5,61.5 Z"/></g>
<g><path style="opacity:0.987" fill="#00dc00" d="M 1008.5,-0.5 C 1022.83,-0.5 1037.17,-0.5 1051.5,-0.5C 1129.25,8.24787 1172.25,51.5812 1180.5,129.5C 1180.5,145.5 1180.5,161.5 1180.5,177.5C 1179.51,182.709 1178.51,188.042 1177.5,193.5C 1102.17,194.5 1026.84,194.833 951.5,194.5C 952.94,223.538 966.94,244.038 993.5,256C 1040.79,271.914 1083.63,264.081 1122,232.5C 1136.83,246 1151,260.167 1164.5,275C 1145.63,295.454 1122.97,310.454 1096.5,320C 1045.06,337.46 995.391,333.46 947.5,308C 906.703,280.954 883.869,242.788 879,193.5C 874.25,154.495 879.25,116.828 894,80.5C 917.324,32.6973 955.491,5.69727 1008.5,-0.5 Z M 1022.5,58.5 C 1049.04,55.367 1073.04,61.5336 1094.5,77C 1112.88,93.2948 1121.88,113.795 1121.5,138.5C 1064.83,138.5 1008.17,138.5 951.5,138.5C 952.171,99.3197 971.171,73.8197 1008.5,62C 1013.3,60.8011 1017.96,59.6345 1022.5,58.5 Z"/></g>
</svg>
