<?xml version="1.0" encoding="UTF-8"?>
<svg version="1.1" xmlns="http://www.w3.org/2000/svg" width="800" height="489">
<path d="M0 0 C0.99345932 0.00214508 0.99345932 0.00214508 2.00698853 0.0043335 C12.34439528 0.05962962 20.88975009 0.85062488 30.25 5.5 C31.22066406 5.94601563 32.19132813 6.39203125 33.19140625 6.8515625 C51.36996991 15.90291965 63.54839306 31.40929898 70.23828125 50.2890625 C76.20742234 69.01688906 73.9703518 89.03547029 65.25 106.5 C59.18007392 117.76590992 50.19727513 126.71861498 41.1015625 135.5703125 C40.33403152 136.31912689 40.33403152 136.31912689 39.55099487 137.08306885 C37.46676153 139.11326454 35.38129033 141.14160333 33.27685547 143.15087891 C23.03394832 152.95431103 16.97012713 161.89942242 16.25 176.5 C16.80867037 186.15103063 21.12408087 195.41491367 28.234375 201.96875 C35.92610686 207.81208118 45.54691257 211.45440204 55.25 210.5 C67.7069637 207.68919793 75.17959438 201.89399189 83.99601746 192.9743042 C84.73280348 192.23711033 85.4695895 191.49991646 86.22870237 190.74038339 C88.67963185 188.28574374 91.12333787 185.82404003 93.56713867 183.36230469 C95.33000041 181.5939635 97.09332847 179.82608707 98.85708618 178.05863953 C102.64720092 174.25883129 106.43433123 170.45608584 110.21895409 166.65081024 C115.70340206 161.13671268 121.19489692 155.62967469 126.68837611 150.12457612 C135.61922325 141.17474088 144.5466895 132.22154241 153.47094727 123.26513672 C154.00431449 122.72985156 154.53768172 122.1945664 155.08721159 121.64306048 C161.03197594 115.6767692 166.97591896 109.70966068 172.91894531 103.74163818 C175.07168659 101.57986534 177.22443536 99.41809996 179.37719727 97.25634766 C179.90839144 96.72293183 180.43958561 96.189516 180.98687657 95.63993606 C189.87153628 86.71844479 198.76210507 77.80286734 207.65724736 68.89182782 C213.13113116 63.40765957 218.59995899 57.91854523 224.06218866 52.42276892 C228.25770389 48.20232457 232.46108493 43.98977397 236.66728592 39.7799778 C238.38187389 38.06139466 240.09389676 36.34024763 241.80304527 34.61625481 C266.4495297 9.76358997 266.4495297 9.76358997 283.25 3.5 C283.94262939 3.23292236 284.63525879 2.96584473 285.34887695 2.69067383 C292.87454169 0.07564682 300.15575707 0.01899116 308.0625 0.0625 C309.97772461 0.0325293 309.97772461 0.0325293 311.93164062 0.00195312 C331.46925554 0.01189593 347.65046144 8.38539198 361.5859375 21.73828125 C376.84998804 37.65352848 381.73545441 56.43835778 381.453125 77.9765625 C381.18135068 87.81678132 378.80233624 95.88881072 374.5625 104.6875 C374.26021484 105.3170459 373.95792969 105.9465918 373.64648438 106.59521484 C366.82609427 119.84145539 355.06827567 129.93023532 344.63818359 140.27539062 C342.84334394 142.06310948 341.04897888 143.85130491 339.25505066 145.63993835 C335.40502405 149.4769095 331.55209069 153.3109241 327.69669724 157.14250183 C322.11404974 162.69102783 316.53897497 168.24711607 310.96604307 173.80539852 C301.91049868 182.83710643 292.85194282 191.86578604 283.79003906 200.89111328 C283.24885443 201.43011766 282.70766981 201.96912205 282.15008564 202.5244599 C274.4661016 210.17720778 266.77914479 217.82696277 259.09100969 225.4755401 C258.54921868 226.01454449 258.00742767 226.55354887 257.44921875 227.10888672 C256.63752977 227.9163951 256.63752977 227.9163951 255.80944304 228.74021679 C246.77307782 237.73044419 237.74449527 246.72844124 228.72219908 255.73278761 C223.16731409 261.27600062 217.60603161 266.81263554 212.03620519 272.34083593 C207.76714829 276.57912712 203.50859766 280.82781849 199.2537632 285.08039284 C197.51179137 286.8180804 195.76638865 288.55233665 194.01726723 290.28282738 C191.62380064 292.65178732 189.24312256 295.03292786 186.86508179 297.4173584 C186.17597226 298.09345232 185.48686272 298.76954625 184.77687109 299.46612787 C176.5451794 307.78379018 170.97459465 316.90511761 170.9375 328.8125 C171.12375676 340.00981831 174.13110087 347.14632296 181.87890625 355.19140625 C187.17053449 360.09015258 193.9936241 363.77436241 201.25 364.5 C202.16265625 364.59474609 202.16265625 364.59474609 203.09375 364.69140625 C214.67801619 365.34197192 223.6928043 360.82188306 232.25 353.5 C236.99263684 349.10359409 241.51477041 344.47556158 246.06987 339.88699341 C247.46140508 338.49274721 248.85339122 337.09895107 250.24578696 335.70556438 C254.05665087 331.88948565 257.86126156 328.06722585 261.66489446 324.24394155 C265.77379547 320.11607881 269.88858746 315.99409617 274.00276184 311.87149048 C281.12808181 304.73017946 288.24999826 297.58548897 295.36987877 290.43875504 C306.15239283 279.61604529 316.94375129 268.80217704 327.73715789 257.99033277 C332.07352369 253.64648939 336.4096185 249.30237549 340.74573231 244.95828056 C341.22742972 244.47569985 341.70912713 243.99311914 342.20542144 243.49591477 C353.66195514 232.01829174 365.11601611 220.53820246 376.5690918 209.05712891 C377.06997202 208.55502911 377.57085225 208.05292932 378.08691067 207.53561438 C389.77001276 195.82400331 401.45139879 184.11068463 413.1293335 172.3939209 C413.63147253 171.89011341 414.13361156 171.38630591 414.65096693 170.86723152 C417.18302156 168.32675049 419.71505602 165.78624936 422.24708311 163.24574088 C422.74751349 162.74363431 423.24794388 162.24152774 423.76353882 161.72420583 C424.77360502 160.7107548 425.78366954 159.69730209 426.79373236 158.68384769 C443.50092049 141.92066253 460.21658835 125.16597194 476.94182015 108.42078892 C487.70689306 97.64278077 498.46408627 86.8570176 509.2096099 76.05951475 C516.25196028 68.98440493 523.30339904 61.91843861 530.36198892 54.85953058 C534.430881 50.78987335 538.49560498 46.71627244 542.54935837 42.63153076 C546.26632787 38.8863083 549.99485418 35.15299544 553.73258457 31.42849551 C555.07678356 30.08501702 556.41681493 28.73735166 557.75201365 27.384928 C573.83367813 11.10697162 590.4864809 0.35685266 613.94467163 0.13699341 C636.5197873 0.00914897 636.5197873 0.00914897 647.25 5.5 C648.28125 5.99628906 649.3125 6.49257812 650.375 7.00390625 C668.08491089 16.37841265 680.58613309 32.20501592 687.1015625 50.94995117 C689.36642073 58.32214521 689.70302046 65.26115344 689.625 72.9375 C689.63660156 74.07509766 689.64820313 75.21269531 689.66015625 76.38476562 C689.62348581 87.09864619 687.61231742 96.86608944 682.75 106.4375 C682.47414063 107.03755859 682.19828125 107.63761719 681.9140625 108.25585938 C675.48203062 121.1597911 663.38707981 131.65523463 653.30351257 141.70718384 C651.92176961 143.09195417 650.54045957 144.47715659 649.15954047 145.8627485 C645.39635733 149.63614468 641.62704282 153.40336155 637.85660326 157.16950512 C633.7786076 161.24502137 629.70637788 165.32629238 625.63336182 169.40678406 C617.66614346 177.38671702 609.69349132 185.36119935 601.71874102 193.33360459 C595.23440144 199.8161575 588.75183805 206.30048151 582.27051735 212.7860527 C581.34630384 213.7108614 580.42209034 214.63567009 579.46987036 215.58850329 C577.59205132 217.46753415 575.71423343 219.34656617 573.8364167 221.22559933 C561.23902987 233.83092051 548.6395652 246.43416205 536.03619671 259.03350258 C535.54411776 259.52542516 535.0520388 260.01734773 534.54504837 260.52417705 C532.05139096 263.01702876 529.55771352 265.50986043 527.06402805 268.00268407 C526.56883576 268.49770527 526.07364347 268.99272647 525.56344536 269.50274831 C524.56204872 270.50379829 523.56065115 271.50484733 522.55925265 272.50589543 C506.97642703 288.08336349 491.4002622 303.66746403 475.8293457 319.25683594 C458.30733157 336.79959403 440.78028593 354.33730294 423.24590522 371.86770093 C413.97207012 381.13962626 404.70043463 390.41372542 395.43463707 399.69368362 C387.54801331 407.59223884 379.65612828 415.48549113 371.75749405 423.37203647 C367.73174385 427.39191094 363.70839541 431.41411102 359.69159889 435.44293404 C356.00741535 439.13801946 352.31625177 442.82598552 348.61963747 446.50863378 C347.29073961 447.83489659 345.96431208 449.1636408 344.64076432 450.49524279 C324.3497614 470.9010305 300.05358198 489.69471452 269.96875 489.87109375 C268.99699829 489.88012222 268.02524658 489.8891507 267.02404785 489.89845276 C264.97341968 489.91289915 262.92274601 489.92182796 260.87207031 489.92553711 C257.78628425 489.93736097 254.70254838 489.98654182 251.6171875 490.03710938 C239.50219109 490.13562712 229.55368222 488.98453054 218.25 484.5 C217.15631104 484.10079346 216.06262207 483.70158691 214.93579102 483.2902832 C190.27879548 474.16464627 170.92747109 452.75926722 155.25 432.5 C154.6003125 431.66710449 154.6003125 431.66710449 153.9375 430.81738281 C143.07912668 416.8447677 133.45782525 402.05017846 123.875 387.1875 C107.45783169 361.70806703 107.45783169 361.70806703 89.25 337.5 C88.76063965 336.89494629 88.2712793 336.28989258 87.76708984 335.66650391 C80.85076005 327.20608459 73.32034699 319.37740994 65.625 311.625 C64.33722656 310.32320801 64.33722656 310.32320801 63.0234375 308.99511719 C57.07508306 303.07623249 50.83385684 297.69843627 44.25 292.5 C43.53360352 291.92958984 42.81720703 291.35917969 42.07910156 290.77148438 C28.4030884 279.96226435 13.92599231 270.50508116 -0.71166992 261.0703125 C-7.09757358 256.94370003 -13.44655782 252.76168712 -19.78103638 248.55670166 C-20.94579183 247.78408221 -22.11134826 247.01266856 -23.27780151 246.24261475 C-38.02827825 236.4996572 -52.05981019 225.88340204 -65.09375 213.921875 C-66.9905741 212.19241773 -68.89943762 210.50186189 -70.84375 208.828125 C-91.3755003 190.90984276 -105.2039276 166.65402228 -108.75 139.5 C-110.73754416 109.82050919 -105.55886701 80.10409179 -85.80078125 56.81640625 C-85.12402344 56.05199219 -84.44726562 55.28757813 -83.75 54.5 C-83.06292969 53.70464844 -82.37585938 52.90929688 -81.66796875 52.08984375 C-77.00424139 46.78747985 -72.08108353 41.7890151 -67.06054688 36.82958984 C-64.26298759 34.05447568 -61.5672398 31.23925182 -59 28.25 C-43.16175759 9.8165757 -24.47563345 -0.12024308 0 0 Z " fill="#FC460F" transform="translate(109.75,-0.5)"/>
</svg>
