<?xml version="1.0" encoding="UTF-8"?>
<!DOCTYPE svg PUBLIC "-//W3C//DTD SVG 1.1//EN" "http://www.w3.org/Graphics/SVG/1.1/DTD/svg11.dtd">
<svg xmlns="http://www.w3.org/2000/svg" version="1.1" width="768px" height="768px" style="shape-rendering:geometricPrecision; text-rendering:geometricPrecision; image-rendering:optimizeQuality; fill-rule:evenodd; clip-rule:evenodd" xmlns:xlink="http://www.w3.org/1999/xlink">
<g><path style="opacity:0.991" fill="#fc4710" d="M 359.5,81.5 C 460.769,76.4162 545.269,111.083 613,185.5C 678.855,266.054 700.188,357.388 677,459.5C 647.509,562.325 582.675,632.491 482.5,670C 379.313,702.122 284.313,686.455 197.5,623C 121.827,561.479 83.1605,481.646 81.5,383.5C 83.2031,289.105 119.536,211.272 190.5,150C 239.775,110.067 296.109,87.2341 359.5,81.5 Z"/></g>
<g><path style="opacity:1" fill="#ffcbba" d="M 226.5,287.5 C 219.378,287.175 212.378,287.841 205.5,289.5C 207.277,288.4 209.277,287.566 211.5,287C 216.684,286.184 221.684,286.35 226.5,287.5 Z"/></g>
<g><path style="opacity:1" fill="#fffefd" d="M 552.5,289.5 C 559.378,287.841 566.378,287.175 573.5,287.5C 597.594,292.769 609.094,307.769 608,332.5C 606.861,339.249 604.527,345.583 601,351.5C 534.833,417.667 468.667,483.833 402.5,550C 375.409,567.437 349.075,566.437 323.5,547C 305.679,527.52 290.179,506.353 277,483.5C 272,477.5 267,471.5 262,465.5C 255.551,459.724 249.051,453.89 242.5,448C 224.153,436.161 206.153,423.827 188.5,411C 162.366,390.964 153.866,365.13 163,333.5C 165.577,327.34 168.91,321.673 173,316.5C 179.5,310 186,303.5 192.5,297C 196.235,293.466 200.568,290.966 205.5,289.5C 212.378,287.841 219.378,287.175 226.5,287.5C 245.44,291.273 256.94,302.606 261,321.5C 262.218,331.527 260.218,340.861 255,349.5C 248.365,357.136 241.365,364.47 234,371.5C 229.245,378.602 228.245,386.269 231,394.5C 239.328,406.66 249.828,408.826 262.5,401C 297.833,365.667 333.167,330.333 368.5,295C 385.976,283.53 403.31,283.864 420.5,296C 436.266,312.21 438.766,330.376 428,350.5C 391.333,387.833 354.667,425.167 318,462.5C 313.545,474.469 316.712,483.969 327.5,491C 334.468,493.37 341.135,492.703 347.5,489C 411.5,425 475.5,361 539.5,297C 543.48,293.845 547.814,291.345 552.5,289.5 Z"/></g>
<g><path style="opacity:1" fill="#ffc9b8" d="M 573.5,287.5 C 566.378,287.175 559.378,287.841 552.5,289.5C 554.277,288.4 556.277,287.566 558.5,287C 563.684,286.184 568.684,286.35 573.5,287.5 Z"/></g>
</svg>
