<?xml version="1.0" standalone="no"?>
<!DOCTYPE svg PUBLIC "-//W3C//DTD SVG 20010904//EN"
 "http://www.w3.org/TR/2001/REC-SVG-20010904/DTD/svg10.dtd">
<svg version="1.0" xmlns="http://www.w3.org/2000/svg"
 width="768.000000pt" height="768.000000pt" viewBox="0 0 768.000000 768.000000"
 preserveAspectRatio="xMidYMid meet">

<g transform="translate(0.000000,768.000000) scale(0.100000,-0.100000)"
fill="#000000" stroke="none">
<path d="M3575 6839 c-507 -48 -980 -214 -1395 -491 -199 -132 -290 -207 -466
-382 -175 -176 -250 -267 -382 -466 -738 -1108 -654 -2576 206 -3600 97 -116
307 -321 422 -413 413 -330 907 -545 1445 -629 192 -30 656 -32 839 -5 724
109 1347 434 1813 947 423 464 668 983 770 1630 28 179 25 654 -5 845 -85 540
-299 1032 -628 1445 -87 108 -283 310 -400 411 -425 366 -957 605 -1534 690
-158 23 -528 33 -685 18z m-1193 -2066 c93 -44 151 -100 196 -191 36 -73 37
-80 37 -181 0 -99 -2 -111 -33 -175 -26 -55 -56 -93 -142 -180 -61 -62 -116
-127 -124 -148 -34 -79 -8 -183 58 -233 47 -36 120 -50 176 -35 41 11 97 63
600 564 647 644 604 611 795 611 99 0 116 -3 168 -27 170 -80 271 -272 238
-451 -23 -128 -24 -128 -611 -720 -310 -311 -551 -562 -559 -580 -20 -49 -10
-137 22 -186 51 -76 166 -107 247 -66 19 9 476 457 1015 995 1126 1124 1022
1035 1215 1035 107 0 119 -2 175 -29 77 -38 163 -124 201 -201 27 -56 29 -68
29 -175 0 -193 93 -85 -1064 -1241 -928 -928 -1011 -1008 -1076 -1042 -96 -49
-182 -69 -290 -69 -218 0 -379 91 -563 317 -35 44 -121 166 -190 270 -141 215
-190 280 -276 373 -97 104 -222 202 -439 346 -235 154 -328 227 -426 332 -183
196 -222 459 -104 703 29 61 58 97 166 208 139 142 166 163 249 194 41 15 74
19 148 17 83 -3 104 -7 162 -35z"/>
</g>
</svg>
