<?xml version="1.0" encoding="UTF-8"?>
<svg version="1.1" xmlns="http://www.w3.org/2000/svg" width="768" height="768">
<path d="M0 0 C1.05198578 0.00215515 2.10397156 0.0043103 3.18783569 0.00653076 C51.75867755 0.16584736 97.0623191 11.54647342 140.4375 33.3125 C141.4584375 33.82296875 142.479375 34.3334375 143.53125 34.859375 C164.79460855 46.01607547 184.66997253 60.22276563 202.4375 76.3125 C202.98809082 76.80669434 203.53868164 77.30088867 204.10595703 77.81005859 C213.41814125 86.17161815 222.28269386 94.63705725 230.11328125 104.421875 C232.54775223 107.44962042 235.05080644 110.4111256 237.5625 113.375 C241.83845009 118.50614011 245.72011847 123.76806499 249.4375 129.3125 C250.21554815 130.44442148 250.9942367 131.57590293 251.7734375 132.70703125 C274.40591751 165.80560166 288.76600776 202.29078491 297.4375 241.3125 C297.69273437 242.43011719 297.69273437 242.43011719 297.953125 243.5703125 C301.7393524 260.21665712 302.85534327 277.28917182 303.4375 294.3125 C303.48003906 295.53195312 303.52257812 296.75140625 303.56640625 298.0078125 C304.02078795 326.05830915 300.69395521 354.21545124 293.4375 381.3125 C293.24494629 382.04227051 293.05239258 382.77204102 292.85400391 383.52392578 C280.80346768 428.39091037 257.88200742 468.47250899 227.4375 503.3125 C226.71304688 504.14910156 225.98859375 504.98570312 225.2421875 505.84765625 C215.47365335 516.93187858 205.06676758 527.19427535 193.4375 536.3125 C192.27278009 537.26453486 191.11013933 538.21911713 189.94921875 539.17578125 C181.46105468 546.13788296 172.72371183 552.45862332 163.4375 558.3125 C162.51735107 558.89427002 162.51735107 558.89427002 161.57861328 559.48779297 C152.80942932 564.99016176 143.79467887 569.81387909 134.47485352 574.3137207 C133.02541703 575.02428327 131.58393102 575.75116364 130.14819336 576.48901367 C83.77547286 600.25462906 30.27920681 607.75610682 -21.25 604.5 C-22.30572708 604.4337291 -22.30572708 604.4337291 -23.38278198 604.36611938 C-34.26555455 603.6672229 -44.88144209 602.54169141 -55.5625 600.3125 C-57.36844454 599.95940496 -59.17443718 599.60655586 -60.98046875 599.25390625 C-74.5073857 596.53411793 -87.50980898 592.75778814 -100.5625 588.3125 C-101.88271579 587.87470824 -103.20301884 587.43717948 -104.5234375 587 C-113.17364517 584.04532232 -121.36212753 580.31308657 -129.5625 576.3125 C-130.52542969 575.85037109 -130.52542969 575.85037109 -131.5078125 575.37890625 C-145.85704206 568.4901327 -159.72513344 560.755183 -172.5625 551.3125 C-173.71021313 550.49377527 -174.85871272 549.67615238 -176.0078125 548.859375 C-184.4124939 542.8422878 -192.32997157 536.4201317 -200.07910156 529.58251953 C-201.49795975 528.36775648 -202.97874033 527.22646126 -204.4609375 526.08984375 C-205.15445313 525.50332031 -205.84796875 524.91679688 -206.5625 524.3125 C-206.5625 523.6525 -206.5625 522.9925 -206.5625 522.3125 C-207.14386719 522.05726563 -207.72523438 521.80203125 -208.32421875 521.5390625 C-214.49665678 518.15660955 -219.20015779 511.70398258 -223.734375 506.4140625 C-224.99055555 504.96999169 -226.27362151 503.54900907 -227.578125 502.1484375 C-263.5206731 463.49080483 -285.49532623 413.36723992 -296.5625 362.3125 C-296.73120605 361.54470215 -296.89991211 360.7769043 -297.07373047 359.98583984 C-301.16289429 341.06300315 -301.94633343 321.9887249 -301.875 302.6875 C-301.87284485 301.63357056 -301.8706897 300.57964111 -301.86846924 299.49377441 C-301.69916426 247.81171566 -288.9632609 198.45436399 -263.5625 153.3125 C-262.96356934 152.24104736 -262.96356934 152.24104736 -262.35253906 151.14794922 C-251.54371976 131.99112159 -238.13437093 114.03962254 -223.0703125 98.03125 C-221.29756417 96.109392 -219.62545737 94.1965532 -217.9765625 92.17578125 C-216.00816255 89.84109328 -214.15120013 87.93392511 -211.8125 86 C-208.85159494 83.48488176 -206.12613942 80.86608126 -203.4375 78.0625 C-189.20843184 63.71223023 -171.04692445 51.29537083 -153.5625 41.3125 C-152.79518555 40.87083496 -152.02787109 40.42916992 -151.23730469 39.97412109 C-122.26948431 23.41081028 -92.14073571 12.37450828 -59.5625 5.3125 C-58.41080322 5.05944092 -58.41080322 5.05944092 -57.23583984 4.80126953 C-38.33406878 0.71665792 -19.27987708 -0.07138504 0 0 Z " fill="#FC4710" transform="translate(383.5625,81.6875)"/>
<path d="M0 0 C10.23827584 6.4399273 15.83742255 14.02600638 19.81640625 25.39453125 C22.20936762 37.19348931 20.54965479 47.24634548 14.50390625 57.64453125 C11.80141063 61.31840582 8.76849897 64.46673716 5.50390625 67.64453125 C3.7929344 69.31751572 2.08449669 70.99288066 0.38110352 72.67358398 C-0.75890551 73.79326124 -1.90777507 74.90401144 -3.06665039 76.00415039 C-7.3022293 80.11634421 -10.14530751 83.81072869 -10.89453125 89.86328125 C-11.01125423 98.25831277 -11.01125423 98.25831277 -7.49609375 105.64453125 C-2.75229726 110.27851763 0.36952977 112.79446397 7.12890625 112.95703125 C8.63324219 113.01310547 8.63324219 113.01310547 10.16796875 113.0703125 C19.75950531 111.84609999 25.5606984 105.12094895 31.99975586 98.53930664 C33.0297578 97.5016163 34.06068287 96.46484156 35.092453 95.4289093 C37.30259824 93.20617402 39.50638799 90.97739246 41.70542717 88.74366951 C45.18815541 85.20658415 48.68632922 81.68504485 52.18690491 78.16563416 C60.24776138 70.05671976 68.28841596 61.92786995 76.32888031 53.7987442 C83.69927492 46.34748109 91.07393629 38.90057511 98.46497923 31.46978563 C101.93887814 27.97604548 105.40280922 24.47280969 108.85924709 20.96179783 C111.01771548 18.77333081 113.18458451 16.59332765 115.35373116 14.41544914 C116.35171895 13.41002171 117.34626819 12.40116655 118.33692932 11.38851929 C123.95561254 5.64918931 129.20893134 1.06446327 136.50390625 -2.35546875 C137.67953125 -2.95359375 138.85515625 -3.55171875 140.06640625 -4.16796875 C149.9649627 -7.57922426 161.24790902 -6.0260695 170.6015625 -1.8984375 C181.03777883 3.64975288 189.13303011 12.04993184 192.84765625 23.41796875 C195.56048817 36.75605904 193.42207818 48.36319548 186.41019249 59.89705658 C182.90569797 64.94798216 178.51597918 69.12707959 174.13989258 73.41503906 C173.09866762 74.45021044 172.05835404 75.4862992 171.01887512 76.52322388 C168.79514422 78.73776461 166.56534001 80.94592614 164.33045387 83.14920807 C160.79413782 86.63586336 157.27290794 90.1375004 153.75358582 93.64129639 C146.92084265 100.43988809 140.07337827 107.22353843 133.22405243 114.00541687 C124.49363893 122.6510189 115.76929325 131.30268866 107.05964297 139.96921039 C103.56182027 143.44870321 100.0564671 146.9203702 96.54496539 150.38605547 C94.3626428 152.54277198 92.18654445 154.70568788 90.01202202 156.87026596 C89.00486409 157.87022649 87.99511519 158.86758538 86.98256683 159.86208725 C85.59758641 161.22306692 84.22277975 162.59437648 82.84846497 163.96612549 C82.07734281 164.72928699 81.30622065 165.4924485 80.51173115 166.27873611 C75.72109966 171.92347768 74.72937095 177.14923675 74.89453125 184.375 C75.94220268 189.99616016 79.11893574 193.18148917 83.50390625 196.64453125 C88.30695701 199.93472681 93.8440293 200.56523041 99.50390625 199.64453125 C101.75372843 198.75461871 103.78516384 197.73543593 105.875 196.51953125 C107.50390625 195.64453125 107.50390625 195.64453125 109.50390625 195.64453125 C109.73078125 195.08765625 109.95765625 194.53078125 110.19140625 193.95703125 C111.87767892 190.9859794 114.03426025 188.99931 116.50390625 186.64453125 C117.32890625 185.79890625 118.15390625 184.95328125 119.00390625 184.08203125 C121.50390625 181.64453125 121.50390625 181.64453125 124.06640625 179.64453125 C126.64867678 177.52574518 128.45280711 175.27250203 130.50390625 172.64453125 C132.14934405 170.95690274 133.81679202 169.29049635 135.50390625 167.64453125 C136.32890625 166.81953125 137.15390625 165.99453125 138.00390625 165.14453125 C138.82890625 164.31953125 139.65390625 163.49453125 140.50390625 162.64453125 C141.32890625 161.79890625 142.15390625 160.95328125 143.00390625 160.08203125 C145.50390625 157.64453125 145.50390625 157.64453125 148.06640625 155.64453125 C150.64867678 153.52574518 152.45280711 151.27250203 154.50390625 148.64453125 C156.14934405 146.95690274 157.81679202 145.29049635 159.50390625 143.64453125 C160.32890625 142.81953125 161.15390625 141.99453125 162.00390625 141.14453125 C162.82890625 140.31953125 163.65390625 139.49453125 164.50390625 138.64453125 C165.32890625 137.79890625 166.15390625 136.95328125 167.00390625 136.08203125 C169.50390625 133.64453125 169.50390625 133.64453125 172.06640625 131.64453125 C174.64867678 129.52574518 176.45280711 127.27250203 178.50390625 124.64453125 C180.14934405 122.95690274 181.81679202 121.29049635 183.50390625 119.64453125 C184.32890625 118.81953125 185.15390625 117.99453125 186.00390625 117.14453125 C186.82890625 116.31953125 187.65390625 115.49453125 188.50390625 114.64453125 C189.32890625 113.79890625 190.15390625 112.95328125 191.00390625 112.08203125 C193.50390625 109.64453125 193.50390625 109.64453125 196.06640625 107.64453125 C198.64867678 105.52574518 200.45280711 103.27250203 202.50390625 100.64453125 C204.14934405 98.95690274 205.81679202 97.29049635 207.50390625 95.64453125 C208.32890625 94.81953125 209.15390625 93.99453125 210.00390625 93.14453125 C210.82890625 92.31953125 211.65390625 91.49453125 212.50390625 90.64453125 C213.32890625 89.79890625 214.15390625 88.95328125 215.00390625 88.08203125 C217.50390625 85.64453125 217.50390625 85.64453125 220.06640625 83.64453125 C222.64867678 81.52574518 224.45280711 79.27250203 226.50390625 76.64453125 C228.14934405 74.95690274 229.81679202 73.29049635 231.50390625 71.64453125 C232.32890625 70.81953125 233.15390625 69.99453125 234.00390625 69.14453125 C234.82890625 68.31953125 235.65390625 67.49453125 236.50390625 66.64453125 C237.32890625 65.79890625 238.15390625 64.95328125 239.00390625 64.08203125 C241.50390625 61.64453125 241.50390625 61.64453125 244.06640625 59.64453125 C246.64867678 57.52574518 248.45280711 55.27250203 250.50390625 52.64453125 C252.14934405 50.95690274 253.81679202 49.29049635 255.50390625 47.64453125 C256.32890625 46.81953125 257.15390625 45.99453125 258.00390625 45.14453125 C258.82890625 44.31953125 259.65390625 43.49453125 260.50390625 42.64453125 C261.32890625 41.79890625 262.15390625 40.95328125 263.00390625 40.08203125 C265.50390625 37.64453125 265.50390625 37.64453125 268.06640625 35.64453125 C270.64867678 33.52574518 272.45280711 31.27250203 274.50390625 28.64453125 C276.14934405 26.95690274 277.81679202 25.29049635 279.50390625 23.64453125 C280.32890625 22.81953125 281.15390625 21.99453125 282.00390625 21.14453125 C282.82890625 20.31953125 283.65390625 19.49453125 284.50390625 18.64453125 C285.74140625 17.37609375 285.74140625 17.37609375 287.00390625 16.08203125 C289.50390625 13.64453125 289.50390625 13.64453125 292.06640625 11.64453125 C294.57378546 9.74306961 294.57378546 9.74306961 296.3359375 7.24609375 C302.80929383 -0.52193385 312.71818919 -4.67004278 322.59765625 -5.66796875 C336.24291892 -6.18778828 347.16870211 -1.22464211 357.19140625 7.76953125 C365.73442392 16.690911 367.83852676 27.27096226 367.71484375 39.14453125 C366.95400467 51.7688241 359.06544877 61.69546493 350.3775177 70.27885437 C349.57569256 71.08691947 348.77386742 71.89498458 347.94774455 72.7275365 C345.27900301 75.41213519 342.59631081 78.08232329 339.91333008 80.75268555 C337.98749869 82.68174236 336.06465393 84.61376674 334.14163208 86.54562378 C329.47088077 91.23410251 324.78945185 95.91177485 320.10402367 100.58558162 C316.29350265 104.3870447 312.48693347 108.1924237 308.68311119 112.00058937 C308.14035392 112.54395958 307.59759665 113.08732978 307.03839218 113.64716575 C305.93556653 114.7512704 304.83274981 115.85538397 303.72994193 116.95950637 C293.40342772 127.29740974 283.06471933 137.62304777 272.72175624 147.94449059 C263.86215193 156.78623051 255.01307998 165.63839781 246.17163086 174.49829102 C235.88699236 184.80437439 225.59584602 195.10388765 215.29434985 205.39312297 C214.19415161 206.49204711 213.09396167 207.59097956 211.99378014 208.68992043 C211.45256817 209.23051529 210.91135621 209.77111015 210.35374388 210.32808667 C206.55451639 214.12387173 202.759927 217.92425516 198.96714211 221.72647667 C194.33918549 226.36569514 189.704081 230.99763036 185.05989335 235.62060245 C182.69399561 237.97604496 180.33248543 240.33546502 177.97737312 242.70171928 C175.41582672 245.27426114 172.84216802 247.83406522 170.26521301 250.39115906 C169.16963875 251.50011765 169.16963875 251.50011765 168.05193168 252.63147944 C155.55968653 264.93874322 141.36977186 270.43080534 123.94140625 270.89453125 C107.00101196 270.71488762 92.95041359 265.10841959 80.50390625 253.64453125 C78.01491238 251.09575805 75.76791933 248.3930245 73.50390625 245.64453125 C72.25480469 244.22527344 72.25480469 244.22527344 70.98046875 242.77734375 C64.03310846 234.86167582 58.16635966 226.51153623 52.50390625 217.64453125 C39.70531482 197.40152487 39.70531482 197.40152487 24.58984375 178.8828125 C22.63946242 176.78998759 20.78759258 174.64154584 18.94140625 172.45703125 C7.23633553 159.13655484 -8.58357438 149.39198641 -23.43212891 139.96044922 C-67.60115592 111.79969034 -67.60115592 111.79969034 -77.49609375 88.64453125 C-78.05296875 87.44828125 -78.60984375 86.25203125 -79.18359375 85.01953125 C-83.83137404 73.06809623 -83.76088582 54.0211508 -78.81640625 42.23046875 C-78.38070312 41.37710938 -77.945 40.52375 -77.49609375 39.64453125 C-76.74972656 38.14792969 -76.74972656 38.14792969 -75.98828125 36.62109375 C-72.06065558 29.36868727 -67.24002056 23.51860746 -61.49609375 17.64453125 C-60.44657131 16.54431211 -59.3970947 15.44404925 -58.34765625 14.34375 C-52.56291382 8.3474639 -46.92310572 2.59392237 -39.49609375 -1.35546875 C-38.38427734 -1.96841797 -38.38427734 -1.96841797 -37.25 -2.59375 C-25.23503028 -8.33489316 -11.38943034 -6.18487062 0 0 Z " fill="#FEFEFD" transform="translate(241.49609375,292.35546875)"/>
</svg>
